<svg width="44" height="44" viewBox="0 0 44 44" fill="none" xmlns="http://www.w3.org/2000/svg">
<path fill-rule="evenodd" clip-rule="evenodd" d="M0 22C0 9.862 9.86398 0 22 0C34.136 0 44 9.86398 44 22C44 34.138 34.136 44 22 44C9.86398 44 0 34.136 0 22ZM0.853475 22C0.853475 33.654 10.3459 43.1469 22.0003 43.1469C33.6548 43.1469 43.1472 33.6545 43.1472 22C43.1472 10.3455 33.6548 0.853128 22.0003 0.853128C10.3459 0.853128 0.853475 10.3455 0.853475 22ZM12.1359 21.5684C11.8863 21.5684 11.7044 21.7503 11.7044 22L11.7061 21.9963C11.7061 22.246 11.888 22.4279 12.1377 22.4279L30.8401 22.4279L25.1853 28.0827C25.0072 28.2588 25.0092 28.5065 25.1853 28.6826C25.3633 28.8587 25.613 28.8587 25.7891 28.6826L32.1697 22.302C32.2549 22.2168 32.2878 22.1278 32.2878 21.9982C32.2878 21.882 32.251 21.7853 32.16 21.6943L25.7794 15.3137C25.6014 15.1376 25.3536 15.1376 25.1756 15.3137C24.9975 15.4898 24.9975 15.7356 25.1756 15.9136L30.8304 21.5684L12.1359 21.5684Z" fill="white"/>
</svg>
