<svg width="44" height="44" viewBox="0 0 44 44" fill="none" xmlns="http://www.w3.org/2000/svg">
<path fill-rule="evenodd" clip-rule="evenodd" d="M44 22C44 9.862 34.136 0 22 0C9.86398 0 0 9.86398 0 22C0 34.138 9.86398 44 22 44C34.136 44 44 34.136 44 22ZM43.1465 22C43.1465 33.654 33.6541 43.1469 21.9997 43.1469C10.3452 43.1469 0.852783 33.6545 0.852783 22C0.852783 10.3455 10.3452 0.853128 21.9997 0.853128C33.6541 0.853128 43.1465 10.3455 43.1465 22ZM31.8641 21.5684C32.1137 21.5684 32.2956 21.7503 32.2956 22L32.2939 21.9963C32.2939 22.246 32.112 22.4279 31.8623 22.4279L13.1599 22.4279L18.8147 28.0827C18.9928 28.2588 18.9908 28.5065 18.8147 28.6826C18.6367 28.8587 18.387 28.8587 18.2109 28.6826L11.8303 22.302C11.7451 22.2168 11.7122 22.1278 11.7122 21.9982C11.7122 21.882 11.749 21.7853 11.84 21.6943L18.2206 15.3137C18.3986 15.1376 18.6464 15.1376 18.8244 15.3137C19.0025 15.4898 19.0025 15.7356 18.8244 15.9136L13.1696 21.5684L31.8641 21.5684Z" fill="white"/>
</svg>
