<svg width="180" height="45" viewBox="0 0 180 45" fill="none" xmlns="http://www.w3.org/2000/svg">
<rect width="180" height="45" fill="#D8D8D8"/>
<path d="M73.4492 18.9238H75.5547V27.1885H80.5449V29H73.4492V18.9238ZM85.1934 27.626C85.763 27.626 86.2005 27.4232 86.5059 27.0176C86.8112 26.612 86.9639 26.0355 86.9639 25.2881C86.9639 24.5407 86.8112 23.9665 86.5059 23.5654C86.2005 23.1598 85.763 22.957 85.1934 22.957C84.6237 22.957 84.1839 23.1598 83.874 23.5654C83.5687 23.9665 83.416 24.5407 83.416 25.2881C83.416 26.0355 83.5687 26.612 83.874 27.0176C84.1839 27.4232 84.6237 27.626 85.1934 27.626ZM89.0078 25.2881C89.0078 26.3818 88.6934 27.3184 88.0645 28.0977C87.4355 28.8724 86.4808 29.2598 85.2002 29.2598C83.9196 29.2598 82.9648 28.8724 82.3359 28.0977C81.707 27.3184 81.3926 26.3818 81.3926 25.2881C81.3926 24.2126 81.707 23.2806 82.3359 22.4922C82.9648 21.7038 83.9196 21.3096 85.2002 21.3096C86.4808 21.3096 87.4355 21.7038 88.0645 22.4922C88.6934 23.2806 89.0078 24.2126 89.0078 25.2881ZM93.6084 27.4004C94.0641 27.4004 94.4492 27.2295 94.7637 26.8877C95.0781 26.5413 95.2354 25.9922 95.2354 25.2402C95.2354 24.5339 95.085 23.9961 94.7842 23.627C94.488 23.2578 94.0892 23.0732 93.5879 23.0732C92.9043 23.0732 92.4326 23.3945 92.1729 24.0371C92.0361 24.3789 91.9678 24.8005 91.9678 25.3018C91.9678 25.7347 92.0407 26.1198 92.1865 26.457C92.4508 27.0859 92.9248 27.4004 93.6084 27.4004ZM93.123 21.3711C93.4967 21.3711 93.8226 21.4281 94.1006 21.542C94.5745 21.738 94.9574 22.098 95.249 22.6221V21.5488H97.1426V28.6172C97.1426 29.5788 96.9808 30.3034 96.6572 30.791C96.1012 31.6296 95.0348 32.0488 93.458 32.0488C92.5055 32.0488 91.7285 31.862 91.127 31.4883C90.5254 31.1146 90.1927 30.5563 90.1289 29.8135H92.248C92.3027 30.0413 92.3916 30.2054 92.5146 30.3057C92.7243 30.4834 93.0775 30.5723 93.5742 30.5723C94.276 30.5723 94.7454 30.3376 94.9824 29.8682C95.1374 29.5674 95.2148 29.0615 95.2148 28.3506V27.8721C95.028 28.1911 94.8275 28.4303 94.6133 28.5898C94.2259 28.8861 93.7223 29.0342 93.1025 29.0342C92.1455 29.0342 91.3799 28.6992 90.8057 28.0293C90.236 27.3548 89.9512 26.4434 89.9512 25.2949C89.9512 24.1875 90.2269 23.2578 90.7783 22.5059C91.3298 21.7493 92.1113 21.3711 93.123 21.3711ZM102.311 27.626C102.88 27.626 103.318 27.4232 103.623 27.0176C103.928 26.612 104.081 26.0355 104.081 25.2881C104.081 24.5407 103.928 23.9665 103.623 23.5654C103.318 23.1598 102.88 22.957 102.311 22.957C101.741 22.957 101.301 23.1598 100.991 23.5654C100.686 23.9665 100.533 24.5407 100.533 25.2881C100.533 26.0355 100.686 26.612 100.991 27.0176C101.301 27.4232 101.741 27.626 102.311 27.626ZM106.125 25.2881C106.125 26.3818 105.811 27.3184 105.182 28.0977C104.553 28.8724 103.598 29.2598 102.317 29.2598C101.037 29.2598 100.082 28.8724 99.4531 28.0977C98.8242 27.3184 98.5098 26.3818 98.5098 25.2881C98.5098 24.2126 98.8242 23.2806 99.4531 22.4922C100.082 21.7038 101.037 21.3096 102.317 21.3096C103.598 21.3096 104.553 21.7038 105.182 22.4922C105.811 23.2806 106.125 24.2126 106.125 25.2881Z" fill="white"/>
</svg>
