<svg width="21" height="21" viewBox="0 0 21 21" fill="none" xmlns="http://www.w3.org/2000/svg">
<g clip-path="url(#clip0_1_622)">
<path d="M10.2236 0.433838C4.69978 0.433838 0.223633 4.90998 0.223633 10.4338C0.223633 15.9577 4.69978 20.4338 10.2236 20.4338C15.7475 20.4338 20.2236 15.9577 20.2236 10.4338C20.2236 4.90998 15.745 0.433838 10.2236 0.433838ZM12.7913 14.7821C12.4371 14.9936 12.0633 15.1559 11.6673 15.2592C11.4706 15.3109 11.264 15.3281 11.0672 15.4511C10.9221 15.7708 11.0156 16.1225 10.9984 16.4643C10.9885 16.6513 10.9738 16.8308 10.8582 16.9882C10.7081 17.1899 10.4991 17.2661 10.263 17.2194C10.0023 17.1677 9.81537 17.0152 9.79323 16.7275C9.77848 16.5234 9.7834 16.3192 9.77356 16.1151C9.76372 15.8937 9.81045 15.6601 9.62353 15.4314C9.26446 15.3428 8.86603 15.2568 8.47499 15.1436C7.86013 14.9665 7.28709 14.696 6.78536 14.2951C6.42137 14.0049 6.35742 13.5598 6.59107 13.2031C6.81488 12.8637 7.20592 12.7703 7.61911 12.9646C7.747 13.0261 7.86751 13.1072 7.99048 13.181C8.32496 13.3827 8.67912 13.545 9.05049 13.6581C9.78586 13.8844 10.5311 13.9656 11.2812 13.7147C11.7386 13.5622 12.0805 13.2917 12.1371 12.7777C12.1912 12.271 11.9378 11.9193 11.5296 11.6586C11.0746 11.3684 10.5581 11.2356 10.049 11.0807C9.32594 10.8593 8.60042 10.6552 7.93883 10.2666C6.5468 9.45253 6.56402 7.48991 7.39038 6.56025C7.84291 6.05115 8.41842 5.75848 9.06771 5.59616C9.28413 5.54205 9.51286 5.52976 9.70224 5.39941C9.80307 5.20265 9.7834 4.99114 9.7711 4.79193C9.70469 3.73438 10.0146 3.64092 10.3983 3.636C10.8459 3.62862 10.9861 3.91884 10.9984 4.76979C10.9984 4.96901 10.9516 5.18052 11.0771 5.37973C11.2763 5.52484 11.5296 5.52976 11.7657 5.57894C12.2502 5.67732 12.7175 5.82489 13.1577 6.04377C13.5807 6.25528 13.7357 6.72503 13.5537 7.13822C13.3889 7.51205 12.9487 7.70142 12.5158 7.5391C11.8641 7.2907 11.2197 7.03738 10.5114 7.00787C10.1425 6.99065 9.77848 7.00295 9.42186 7.12592C9.01606 7.26611 8.7529 7.53418 8.69141 7.95228C8.63239 8.35317 8.84144 8.6606 9.14641 8.90162C9.43908 9.1328 9.78094 9.27545 10.1302 9.39104C10.654 9.5632 11.1828 9.72307 11.7067 9.89768C12.0559 10.0133 12.3855 10.1756 12.715 10.3404C14.4268 11.2036 14.3948 13.8278 12.7962 14.7821H12.7913Z" fill="white"/>
</g>
<defs>
<clipPath id="clip0_1_622">
<rect width="20" height="20" fill="white" transform="translate(0.223633 0.433838)"/>
</clipPath>
</defs>
</svg>
