<svg width="21" height="21" viewBox="0 0 21 21" fill="none" xmlns="http://www.w3.org/2000/svg">
<g clip-path="url(#clip0_1_618)">
<path d="M19.4016 9.07282C18.9347 8.68309 18.4679 8.29336 17.9888 7.91784C17.6965 7.68847 17.5646 7.41038 17.6011 7.03892C17.6661 6.39952 17.7047 5.7581 17.7777 5.12073C17.9198 3.88455 17.1038 2.96301 15.8595 3.00766C15.2526 3.02999 14.6457 3.09292 14.0449 3.17817C13.507 3.2553 13.0929 3.1193 12.762 2.67274C12.4311 2.22415 12.0739 1.79382 11.7126 1.36958C10.8032 0.301889 9.57719 0.318128 8.68 1.40003C8.31463 1.84254 7.94317 2.28098 7.59404 2.7377C7.30783 3.11119 6.96276 3.24516 6.48981 3.18223C5.83823 3.09292 5.17853 3.02593 4.52289 3.00766C3.30093 2.97316 2.5032 3.88252 2.63717 5.10043C2.70619 5.72156 2.7549 6.34472 2.81377 6.96788C2.85437 7.39009 2.7001 7.71486 2.35909 7.97671C1.90237 8.32584 1.46393 8.69933 1.02142 9.0647C-0.058452 9.9558 -0.0625117 11.192 1.01533 12.0871C1.4964 12.487 1.97951 12.8849 2.46667 13.2746C2.72649 13.4816 2.84422 13.7374 2.81377 14.0703C2.7549 14.7097 2.72243 15.3511 2.64123 15.9885C2.47885 17.2795 3.30296 18.2091 4.60815 18.1482C5.21507 18.1198 5.82199 18.0528 6.42282 17.9716C6.92419 17.9046 7.30986 18.0386 7.62043 18.4466C7.95738 18.8912 8.32072 19.3154 8.67391 19.7457C9.58328 20.852 10.8195 20.856 11.7329 19.7538C12.0881 19.3235 12.4535 18.9013 12.7864 18.4547C13.0929 18.0447 13.4643 17.8965 13.9738 17.9737C14.5747 18.065 15.1836 18.0995 15.689 18.1482C17.1059 18.1969 17.9219 17.3099 17.7717 16.0027C17.7047 15.4161 17.662 14.8254 17.5991 14.2367C17.5504 13.7739 17.7148 13.4248 18.0903 13.1447C18.5369 12.8098 18.9611 12.4484 19.3894 12.0912C20.4754 11.1899 20.4795 9.97407 19.3976 9.07079L19.4016 9.07282ZM13.783 8.99772C13.4501 9.46661 13.101 9.92129 12.7559 10.38C12.0049 11.3787 11.2477 12.3733 10.5069 13.3781C10.247 13.7313 9.91415 13.918 9.46149 13.9586C9.17325 13.9404 8.89923 13.8308 8.67391 13.6034C8.04263 12.9701 7.40729 12.3368 6.77601 11.7035C6.52228 11.4498 6.39035 11.1514 6.67858 10.8631C6.97697 10.5648 7.26115 10.7393 7.50879 10.989C8.05684 11.5391 8.61911 12.077 9.15296 12.6413C9.42901 12.9315 9.59343 12.8889 9.81874 12.5824C10.7687 11.2914 11.741 10.0147 12.7031 8.73181C12.7945 8.61002 12.8757 8.47808 12.9812 8.3705C13.1923 8.1533 13.4522 8.07617 13.7039 8.27307C13.9556 8.46996 13.9616 8.74602 13.783 8.99569V8.99772Z" fill="white"/>
</g>
<defs>
<clipPath id="clip0_1_618">
<rect width="20" height="20" fill="white" transform="translate(0.209473 0.582275)"/>
</clipPath>
</defs>
</svg>
