<svg width="19" height="13" viewBox="0 0 19 13" fill="none" xmlns="http://www.w3.org/2000/svg">
<path d="M1.41016 5.75C0.995943 5.75 0.660156 6.08579 0.660156 6.5C0.660156 6.91421 0.995943 7.25 1.41016 7.25V5.75ZM17.9405 7.03033C18.2334 6.73744 18.2334 6.26256 17.9405 5.96967L13.1675 1.1967C12.8746 0.903806 12.3997 0.903806 12.1069 1.1967C11.814 1.48959 11.814 1.96447 12.1069 2.25736L16.3495 6.5L12.1069 10.7426C11.814 11.0355 11.814 11.5104 12.1069 11.8033C12.3997 12.0962 12.8746 12.0962 13.1675 11.8033L17.9405 7.03033ZM1.41016 7.25H17.4102V5.75H1.41016V7.25Z" fill="white"/>
</svg>
