<svg width="13" height="11" viewBox="0 0 13 11" fill="none" xmlns="http://www.w3.org/2000/svg">
<path d="M11.7289 2.30798C11.6236 1.66851 11.1217 1.20282 10.5394 1.05744C9.66789 0.854126 8.05502 0.70874 6.30998 0.70874C4.56597 0.70874 2.92728 0.854126 2.05476 1.05744C1.47342 1.20282 0.970563 1.63898 0.865241 2.30798C0.758887 3.03491 0.653564 4.05261 0.653564 5.36108C0.653564 6.66955 0.758887 7.68725 0.891055 8.41418C0.99741 9.05365 1.49924 9.51934 2.08057 9.66472C3.00576 9.86804 4.59178 10.0134 6.33682 10.0134C8.08186 10.0134 9.66789 9.86804 10.5931 9.66472C11.1744 9.51934 11.6762 9.08318 11.7826 8.41418C11.8879 7.68725 12.0201 6.64002 12.0469 5.36108C11.9932 4.05261 11.8611 3.03491 11.7289 2.30798ZM4.88297 7.39648V3.32568L8.10768 5.36108L4.88297 7.39648Z" fill="#1A1A1A"/>
</svg>
