<svg width="24" height="23" viewBox="0 0 24 23" fill="none" xmlns="http://www.w3.org/2000/svg">
<path fill-rule="evenodd" clip-rule="evenodd" d="M5.35547 0.984375H0.230469V2.73438H4.70633L5.35974 4.89062H5.35547L7.96261 16.7656H20.9983L23.6055 4.89062H7.18832L6.19286 1.60562L6.00461 0.984375H5.35547ZM11.7305 20.3906C11.7305 21.3571 10.947 22.1406 9.98047 22.1406C9.01397 22.1406 8.23047 21.3571 8.23047 20.3906C8.23047 19.4241 9.01397 18.6406 9.98047 18.6406C10.947 18.6406 11.7305 19.4241 11.7305 20.3906ZM18.8555 22.1406C19.822 22.1406 20.6055 21.3571 20.6055 20.3906C20.6055 19.4241 19.822 18.6406 18.8555 18.6406C17.889 18.6406 17.1055 19.4241 17.1055 20.3906C17.1055 21.3571 17.889 22.1406 18.8555 22.1406Z" fill="white"/>
</svg>
