<svg width="16" height="13" viewBox="0 0 16 13" fill="none" xmlns="http://www.w3.org/2000/svg">
<path d="M15.4293 1.66793C14.8751 1.91982 14.2778 2.08536 13.6588 2.16452C14.2921 1.78308 14.7815 1.17853 15.0119 0.451624C14.4145 0.811477 13.7524 1.06337 13.0543 1.20731C12.4857 0.588368 11.6868 0.228516 10.78 0.228516C9.08868 0.228516 7.70684 1.61035 7.70684 3.31605C7.70684 3.56075 7.73563 3.79825 7.78601 4.02136C5.22386 3.89182 2.94239 2.66112 1.42382 0.797083C1.15753 1.2505 1.00639 1.78308 1.00639 2.34445C1.00639 3.41681 1.54617 4.36682 2.38102 4.9066C1.87003 4.9066 1.39503 4.76266 0.977599 4.54675V4.56834C0.977599 6.06532 2.04276 7.31761 3.45339 7.5983C3.00049 7.72224 2.52503 7.73948 2.06435 7.64868C2.25983 8.26221 2.64266 8.79906 3.15904 9.18376C3.67541 9.56846 4.29936 9.78166 4.94318 9.7934C3.85184 10.6574 2.49905 11.1244 1.10715 11.1177C0.862446 11.1177 0.617747 11.1033 0.373047 11.0745C1.74049 11.9525 3.36702 12.4635 5.10871 12.4635C10.78 12.4635 13.8963 7.75663 13.8963 3.6759C13.8963 3.53916 13.8963 3.40961 13.8891 3.27287C14.4937 2.84105 15.0119 2.29407 15.4293 1.66793Z" fill="#1D1D1B"/>
</svg>
