<svg width="13" height="13" viewBox="0 0 13 13" fill="none" xmlns="http://www.w3.org/2000/svg">
<path d="M3.80849 1.10229C2.00859 1.10229 0.538818 2.57203 0.538818 4.37188V9.60322C0.538818 11.4031 2.00859 12.8728 3.80849 12.8728H9.03996C10.8399 12.8728 12.3096 11.4031 12.3096 9.60322V4.37188C12.3096 2.57203 10.8399 1.10229 9.03996 1.10229H3.80849ZM3.80849 2.08317H9.03996C10.3096 2.08317 11.3287 3.10224 11.3287 4.37188V9.60322C11.3287 10.8729 10.3096 11.8919 9.03996 11.8919H3.80849C2.53882 11.8919 1.51972 10.8729 1.51972 9.60322V4.37188C1.51972 3.10224 2.53882 2.08317 3.80849 2.08317ZM9.85738 3.06405C9.7273 3.06405 9.60255 3.11572 9.51058 3.20769C9.4186 3.29967 9.36693 3.42441 9.36693 3.55448C9.36693 3.68456 9.4186 3.8093 9.51058 3.90128C9.60255 3.99325 9.7273 4.04492 9.85738 4.04492C9.98745 4.04492 10.1122 3.99325 10.2042 3.90128C10.2962 3.8093 10.3478 3.68456 10.3478 3.55448C10.3478 3.42441 10.2962 3.29967 10.2042 3.20769C10.1122 3.11572 9.98745 3.06405 9.85738 3.06405ZM6.42422 3.71796C5.37521 3.71796 4.52634 4.12899 3.97325 4.7512C3.42016 5.37341 3.15455 6.18378 3.15455 6.98755C3.15455 7.79132 3.42016 8.60168 3.97325 9.22389C4.52634 9.8461 5.37521 10.2571 6.42422 10.2571C7.47324 10.2571 8.32211 9.8461 8.8752 9.22389C9.42829 8.60168 9.6939 7.79132 9.6939 6.98755C9.6939 6.18378 9.42829 5.37341 8.8752 4.7512C8.32211 4.12899 7.47324 3.71796 6.42422 3.71796ZM6.42422 4.69884C7.22802 4.69884 7.76876 4.9826 8.14208 5.40257C8.5154 5.82254 8.71299 6.40175 8.71299 6.98755C8.71299 7.57335 8.5154 8.15256 8.14208 8.57253C7.76876 8.9925 7.22802 9.27626 6.42422 9.27626C5.62043 9.27626 5.07969 8.9925 4.70637 8.57253C4.33305 8.15256 4.13546 7.57335 4.13546 6.98755C4.13546 6.40175 4.33305 5.82254 4.70637 5.40257C5.07969 4.9826 5.62043 4.69884 6.42422 4.69884Z" fill="#1A1A1A" stroke="#1A1A1A" stroke-width="0.25"/>
</svg>
