<svg width="12" height="11" viewBox="0 0 12 11" fill="none" xmlns="http://www.w3.org/2000/svg">
<path d="M0.821575 10.1919C1.08549 9.89046 1.32961 9.61128 1.57394 9.33231C2.58139 8.18214 3.58777 7.03112 4.59859 5.88389C4.67357 5.7989 4.6643 5.75156 4.60069 5.66867C3.29437 3.96729 1.99099 2.26318 0.687193 0.559691C0.666762 0.532762 0.647805 0.504781 0.626953 0.475537C0.668447 0.446715 0.707624 0.458286 0.744063 0.458286C1.80058 0.457444 2.8571 0.458707 3.91362 0.455761C3.99261 0.455761 4.04042 0.480166 4.08739 0.54265C4.82838 1.52494 5.57254 2.50449 6.31269 3.48719C6.36872 3.56167 6.39168 3.5501 6.44539 3.48846C7.29633 2.51353 8.15065 1.54177 9.00054 0.565792C9.07236 0.483322 9.14419 0.453657 9.25161 0.45513C9.70425 0.461021 10.1571 0.457655 10.61 0.457655H10.725C10.7283 0.507726 10.6923 0.525399 10.6713 0.549593C9.51911 1.86681 8.36675 3.18382 7.21103 4.49788C7.14995 4.56731 7.15732 4.60497 7.20787 4.67145C8.57464 6.47234 9.9391 8.27492 11.304 10.0773C11.3267 10.1074 11.3482 10.1387 11.375 10.176C11.3328 10.1991 11.2945 10.1913 11.2585 10.1913C10.2266 10.1917 9.19453 10.1909 8.16265 10.1934C8.08725 10.1934 8.04196 10.1684 7.99752 10.1101C7.17438 9.03188 6.34808 7.95597 5.52662 6.87649C5.46322 6.79318 5.43795 6.80854 5.37918 6.87607C4.45452 7.93557 3.52585 8.9917 2.60287 10.0529C2.51462 10.1545 2.42763 10.198 2.29156 10.1953C1.84945 10.1863 1.40713 10.1919 0.964803 10.1919C0.926679 10.1919 0.888766 10.1919 0.821996 10.1919H0.821575ZM2.53842 1.39281C2.69365 1.59541 2.83204 1.77592 2.97042 1.95643C4.8029 4.34935 6.63538 6.74226 8.46638 9.13623C8.50514 9.18693 8.54516 9.20482 8.60708 9.20397C8.83519 9.20082 9.06331 9.20397 9.29142 9.20166C9.33038 9.20124 9.38641 9.2248 9.40474 9.18167C9.41843 9.14927 9.36998 9.11835 9.34744 9.08868C8.08725 7.42307 6.82621 5.75808 5.56559 4.09289C4.90758 3.224 4.25021 2.35469 3.59093 1.48665C3.56313 1.45025 3.54797 1.39302 3.48688 1.39281C3.17915 1.39239 2.87163 1.3926 2.53863 1.3926L2.53842 1.39281Z" fill="black"/>
</svg>
