<svg width="11" height="16" viewBox="0 0 11 16" fill="none" xmlns="http://www.w3.org/2000/svg">
<path d="M4.48674 10.2148C4.12257 12.1767 3.67923 14.0581 2.36361 15.0404C1.95841 12.0753 2.96024 9.84778 3.42517 7.48354C2.63206 6.10891 3.52089 3.34164 5.19349 4.0232C7.25185 4.86238 3.41078 9.13455 5.98948 9.66857C8.6819 10.2256 9.78161 4.85878 8.11189 3.11277C5.69944 0.593086 1.08973 3.05592 1.65686 6.6638C1.79504 7.54616 2.67956 7.81389 2.01023 9.03163C0.466464 8.67825 0.00585277 7.42453 0.0655883 5.75265C0.160589 3.01777 2.45285 1.10192 4.75159 0.837066C7.6592 0.501683 10.3876 1.93606 10.764 4.75226C11.1886 7.93048 9.45198 11.3736 6.34358 11.1253C5.5008 11.0583 5.14671 10.6287 4.48674 10.2148Z" fill="#1D1D1B"/>
</svg>
