<svg width="22" height="22" viewBox="0 0 22 22" fill="none" xmlns="http://www.w3.org/2000/svg">
<path fill-rule="evenodd" clip-rule="evenodd" d="M8.56258 0.477539C13.178 0.477539 16.9196 4.21934 16.9196 8.83504C16.9196 10.7854 16.2514 12.5798 15.1314 14.0017L21.344 20.0946L19.9436 21.5225L13.7156 15.4146C12.2959 16.5281 10.5067 17.192 8.56258 17.192C3.94688 17.192 0.205078 13.4504 0.205078 8.83504C0.205078 4.21925 3.94679 0.477539 8.56258 0.477539ZM8.56258 2.47754C5.05136 2.47754 2.20508 5.32382 2.20508 8.83504C2.20508 12.3458 5.05143 15.192 8.56258 15.192C12.0733 15.192 14.9196 12.3458 14.9196 8.83504C14.9196 5.32389 12.0734 2.47754 8.56258 2.47754Z" fill="white"/>
</svg>
