<svg width="16" height="16" viewBox="0 0 16 16" fill="none" xmlns="http://www.w3.org/2000/svg">
<path d="M11.3333 5.77783C11.947 5.77783 12.4445 5.28037 12.4445 4.66672C12.4445 4.05307 11.947 3.55561 11.3333 3.55561C10.7197 3.55561 10.2222 4.05307 10.2222 4.66672C10.2222 5.28037 10.7197 5.77783 11.3333 5.77783Z" fill="#4A4A4A"/>
<path fill-rule="evenodd" clip-rule="evenodd" d="M9.41772 0.777832C8.28538 0.777832 7.20181 1.23868 6.41638 2.05433L1.69015 6.96234C0.535187 8.16172 0.553144 10.065 1.73052 11.2424L4.95042 14.4623C6.02077 15.5326 7.75105 15.549 8.84139 14.499L14.1159 9.4198C14.8228 8.73909 15.2222 7.8 15.2222 6.81864V4.38894C15.2222 2.39458 13.6055 0.777832 11.6111 0.777832H9.41772ZM7.61691 3.2104C8.08817 2.72101 8.73832 2.4445 9.41772 2.4445H11.6111C12.685 2.4445 13.5556 3.31506 13.5556 4.38894V6.81864C13.5556 7.34706 13.3405 7.85273 12.9599 8.21926L7.68532 13.2985C7.24918 13.7185 6.55707 13.7119 6.12893 13.2838L2.90904 10.0639C2.37386 9.52872 2.3657 8.66358 2.89068 8.11841L7.61691 3.2104Z" fill="#4A4A4A"/>
</svg>
