<svg width="18" height="12" viewBox="0 0 18 12" fill="none" xmlns="http://www.w3.org/2000/svg">
<path d="M0.751465 4.99951C0.337251 4.99951 0.00146484 5.3353 0.00146484 5.74951C0.00146484 6.16373 0.337251 6.49951 0.751465 6.49951V4.99951ZM17.2818 6.27984C17.5747 5.98695 17.5747 5.51207 17.2818 5.21918L12.5088 0.446211C12.2159 0.153317 11.7411 0.153317 11.4482 0.446211C11.1553 0.739104 11.1553 1.21398 11.4482 1.50687L15.6908 5.74951L11.4482 9.99215C11.1553 10.285 11.1553 10.7599 11.4482 11.0528C11.7411 11.3457 12.2159 11.3457 12.5088 11.0528L17.2818 6.27984ZM0.751465 6.49951H16.7515V4.99951H0.751465V6.49951Z" fill="#1A1A1A"/>
</svg>
