<svg width="22" height="13" viewBox="0 0 22 13" fill="none" xmlns="http://www.w3.org/2000/svg">
<g clip-path="url(#clip0_1_14290)">
<path d="M0.835666 5.37195C0.835666 4.15764 0.864799 2.94333 0.82318 1.72902C0.802371 1.08857 1.13532 0.803223 1.96354 0.803223C4.97676 0.809564 7.98998 0.806393 11.0074 0.803223C11.8023 0.803223 12.1144 1.1171 12.1103 1.69731C12.102 4.17666 12.0978 6.65918 12.1103 9.13853C12.1103 9.76947 11.7565 10.0738 10.9241 10.0485C10.612 10.039 10.2957 10.0707 9.9877 10.0453C9.19278 9.97555 8.68502 10.0865 8.38537 10.784C8.04409 11.5767 7.20338 12.0427 6.00476 12.0332C4.80196 12.0237 3.99455 11.5259 3.65744 10.7396C3.38692 10.1087 2.9624 10.0263 2.22991 10.039C0.948037 10.0612 0.839828 9.94702 0.835666 8.93562C0.835666 7.74667 0.835666 6.5609 0.835666 5.37195ZM7.32408 10.0041C7.17841 9.46193 6.78303 9.08146 6.0214 9.09732C5.27226 9.11317 4.82277 9.46827 4.78115 10.0453C4.73954 10.5716 5.42625 11.0694 6.11296 11.0091C6.85795 10.9426 7.24917 10.5843 7.32824 10.0041H7.32408Z" fill="#009AD5"/>
<path d="M12.9736 6.01878C12.9736 4.98836 12.9902 3.96111 12.9652 2.93069C12.9527 2.36634 13.2399 2.10001 14.0057 2.11904C14.9421 2.14123 15.8827 2.16977 16.8108 2.10953C17.793 2.04611 18.4506 2.29976 18.9334 2.95606C19.3704 3.55211 19.8324 4.15451 20.4109 4.67131C21.443 5.59076 21.8259 6.61167 21.6553 7.79745C21.5887 8.26669 21.6095 8.7486 21.6553 9.22101C21.7094 9.7822 21.4472 10.0866 20.6731 10.0453C20.1778 10.02 19.978 10.1753 19.8116 10.5431C19.3538 11.5482 18.4839 12.0269 17.3144 12.0269C16.1574 12.0269 15.2501 11.5292 14.8131 10.5463C14.6508 10.1753 14.451 10.0232 13.9516 10.0453C13.1484 10.0834 12.9652 9.70927 12.9736 9.18614C12.9902 8.13035 12.9777 7.07457 12.9777 6.01878H12.9736ZM17.7597 6.08219C18.2758 6.08219 18.7919 6.08219 19.308 6.08219C19.7824 6.08219 19.9572 5.96171 19.6451 5.61296C19.104 5.00739 18.6171 4.37011 18.0511 3.78039C17.4975 3.20336 16.6402 3.40627 15.9452 3.49822C15.3001 3.58382 15.5956 4.11013 15.5872 4.43986C15.5539 6.08536 15.5664 6.08536 17.7597 6.08219ZM17.277 9.06883C16.5611 9.17663 16.0783 9.46197 16.045 10.0485C16.0159 10.5748 16.7026 11.0726 17.3852 11.006C18.126 10.9331 18.5921 10.5907 18.5588 10.0105C18.5255 9.4271 18.0136 9.14809 17.277 9.06883Z" fill="#009AD5"/>
</g>
<defs>
<clipPath id="clip0_1_14290">
<rect width="20.872" height="11.23" fill="white" transform="translate(0.822266 0.803223)"/>
</clipPath>
</defs>
</svg>
