<svg width="22" height="22" viewBox="0 0 22 22" fill="none" xmlns="http://www.w3.org/2000/svg">
<path fill-rule="evenodd" clip-rule="evenodd" d="M8.75447 0.477539C13.3698 0.477539 17.1115 4.21934 17.1115 8.83504C17.1115 10.7854 16.4433 12.5798 15.3233 14.0017L21.5359 20.0946L20.1355 21.5225L13.9075 15.4146C12.4878 16.5281 10.6986 17.192 8.75447 17.192C4.13878 17.192 0.396973 13.4504 0.396973 8.83504C0.396973 4.21925 4.13869 0.477539 8.75447 0.477539ZM8.75447 2.47754C5.24326 2.47754 2.39697 5.32382 2.39697 8.83504C2.39697 12.3458 5.24332 15.192 8.75447 15.192C12.2652 15.192 15.1115 12.3458 15.1115 8.83504C15.1115 5.32389 12.2653 2.47754 8.75447 2.47754Z" fill="#1A1A1A" fill-opacity="0.3"/>
</svg>
