<svg width="17" height="16" viewBox="0 0 17 16" fill="none" xmlns="http://www.w3.org/2000/svg">
<path d="M15.2339 4.11078H13.5731V0.789062H3.60794V4.11078H1.94708C1.65342 4.11078 1.37179 4.22743 1.16415 4.43508C0.956499 4.64273 0.839844 4.92436 0.839844 5.21802V10.7542C0.839844 11.0479 0.956499 11.3295 1.16415 11.5371C1.37179 11.7448 1.65342 11.8615 1.94708 11.8615H3.60794V15.1832H13.5731V11.8615H15.2339C15.5276 11.8615 15.8092 11.7448 16.0169 11.5371C16.2245 11.3295 16.3412 11.0479 16.3412 10.7542V5.21802C16.3412 4.92436 16.2245 4.64273 16.0169 4.43508C15.8092 4.22743 15.5276 4.11078 15.2339 4.11078ZM4.71518 1.8963H12.4658V4.11078H4.71518V1.8963ZM12.4658 14.0759H4.71518V8.53973H12.4658V14.0759ZM15.2339 10.7542H13.5731V7.4325H3.60794V10.7542H1.94708V5.21802H15.2339V10.7542Z" fill="#1D1D1B"/>
</svg>
