<svg width="18" height="12" viewBox="0 0 18 12" fill="none" xmlns="http://www.w3.org/2000/svg">
<path d="M0.804688 5.08301C0.390474 5.08301 0.0546875 5.41879 0.0546875 5.83301C0.0546875 6.24722 0.390474 6.58301 0.804688 6.58301V5.08301ZM17.335 6.36334C17.6279 6.07044 17.6279 5.59557 17.335 5.30268L12.562 0.529707C12.2692 0.236814 11.7943 0.236814 11.5014 0.529707C11.2085 0.8226 11.2085 1.29747 11.5014 1.59037L15.744 5.83301L11.5014 10.0756C11.2085 10.3685 11.2085 10.8434 11.5014 11.1363C11.7943 11.4292 12.2692 11.4292 12.562 11.1363L17.335 6.36334ZM0.804688 6.58301H16.8047V5.08301H0.804688V6.58301Z" fill="#C22482"/>
</svg>
