<svg width="15" height="14" viewBox="0 0 15 14" fill="none" xmlns="http://www.w3.org/2000/svg">
<circle cx="7.0918" cy="7" r="6.5" stroke="#1A1A1A"/>
<path fill-rule="evenodd" clip-rule="evenodd" d="M7.10088 3.28247C6.92292 3.28247 6.76769 3.34548 6.64289 3.47028C6.51809 3.59508 6.45508 3.75031 6.45508 3.92827C6.45508 4.10623 6.51809 4.26146 6.64289 4.38626C6.76769 4.51106 6.92292 4.57407 7.10088 4.57407C7.27429 4.57407 7.42445 4.51022 7.54333 4.385C7.66729 4.26041 7.72988 4.10563 7.72988 3.92827C7.72988 3.75091 7.66729 3.59613 7.54333 3.47154C7.42445 3.34632 7.27429 3.28247 7.10088 3.28247ZM7.59548 5.07167H6.58108V9.92487H7.59548V5.07167Z" fill="#1A1A1A"/>
</svg>
