<svg width="12" height="13" viewBox="0 0 12 13" fill="none" xmlns="http://www.w3.org/2000/svg">
<path d="M8.31257 4.25832V4.38897C8.31257 5.80239 8.31026 7.216 8.31335 8.62942C8.31509 9.42574 8.1095 10.1619 7.67901 10.8363C7.27325 11.4719 6.72219 11.9501 6.04245 12.2825C5.40521 12.5941 4.72701 12.7413 4.0179 12.691C2.67542 12.596 1.61175 12.0036 0.854715 10.8993C0.397753 10.2325 0.162219 9.4884 0.179609 8.68713C0.211876 7.18762 0.876742 6.02599 2.18 5.23881C2.90013 4.8038 3.69271 4.64038 4.53244 4.68628C4.7111 4.69606 4.80044 4.78869 4.80044 4.96417C4.80044 5.58222 4.80044 6.20007 4.80044 6.81812C4.80044 6.8526 4.80044 6.88707 4.80044 6.9305C4.58461 6.86821 4.374 6.84326 4.15702 6.8505C3.30087 6.87869 2.54654 7.52607 2.40626 8.36048C2.23101 9.40212 2.92332 10.354 3.98486 10.4958C5.1378 10.6498 6.05868 9.78038 6.09017 8.7814C6.11046 8.13555 6.09829 7.48855 6.09848 6.84212C6.09906 4.61105 6.09848 2.37979 6.09887 0.148721C6.09887 0.00377952 6.08689 0.0233971 6.2289 0.0233971C6.88778 0.0228257 7.54685 0.0243494 8.20572 0.0214925C8.28514 0.0211116 8.31335 0.0338725 8.31547 0.122628C8.33537 0.971326 8.67641 1.67965 9.30166 2.25561C9.70182 2.62415 10.1717 2.86852 10.7096 2.98108C10.905 3.02184 11.1028 3.04298 11.3021 3.04869C11.3652 3.05041 11.3834 3.07098 11.3832 3.13231C11.3813 3.80426 11.3805 4.47601 11.3838 5.14796C11.3842 5.23481 11.3378 5.22567 11.281 5.22434C10.2531 5.20034 9.31074 4.90874 8.4542 4.34821C8.41421 4.32212 8.37363 4.29698 8.31277 4.25851L8.31257 4.25832Z" fill="#1A1A1A"/>
</svg>
