<svg width="24" height="18" viewBox="0 0 24 18" fill="none" xmlns="http://www.w3.org/2000/svg">
<g clip-path="url(#clip0_1_626)">
<path d="M22.5194 7.99033C21.772 6.88388 20.9885 5.80227 20.1259 4.78162C19.5659 4.11775 18.8343 3.84904 17.9672 3.91227C16.8652 3.9913 15.7611 3.81743 14.6411 3.97324C14.5214 3.4855 14.5846 3.03614 14.5778 2.5913C14.5575 1.42388 14.0969 0.938399 12.9294 0.936141C9.18557 0.927109 5.4417 0.929367 1.70009 0.933883C0.595897 0.936141 0.0946071 1.45098 0.0855748 2.57324C0.0810587 3.23033 0.119446 3.88743 0.117188 4.54679C0.110414 7.59292 0.092349 10.639 0.0855748 13.6874C0.0833168 14.8707 0.622994 15.3923 1.81525 15.4058C2.29848 15.4103 2.78848 15.3516 3.30783 15.4578C3.55848 17.0045 4.45719 17.91 6.03783 17.9281C7.67493 17.9461 8.5646 16.9707 8.91235 15.4036H9.48815C10.6917 15.4036 11.9065 15.5007 13.0965 15.3697C13.9094 15.2816 14.6885 15.2319 15.4788 15.4171C16.0027 17.2055 16.7749 17.9078 18.2472 17.9394C19.6382 17.9687 20.4917 17.2326 21.1375 15.4442C22.7656 15.2636 23.0411 14.9542 23.0411 13.3058C23.0411 12.1768 23.0411 11.0478 23.0411 9.92098C23.0411 9.23001 22.9078 8.5684 22.5172 7.99033H22.5194ZM6.06719 16.9232C5.01041 16.9187 4.31041 16.2165 4.30138 15.1529C4.29235 14.1029 5.01041 13.3713 6.05138 13.3713C7.11493 13.3713 7.86686 14.1119 7.87364 15.1642C7.88041 16.1419 7.07428 16.9278 6.06719 16.9232ZM18.2923 16.9255C17.2311 16.9323 16.5378 16.239 16.5311 15.1597C16.5243 14.069 17.1949 13.3758 18.2585 13.3713C19.2746 13.3668 20.0627 14.1345 20.0672 15.1303C20.0717 16.1397 19.3017 16.9187 18.2923 16.9255ZM17.5427 9.39937C17.2062 9.39937 17.0685 9.21195 17.0662 8.90711C17.0594 8.41937 17.0572 7.93162 17.0662 7.44388C17.073 7.10743 17.2536 6.93356 17.6014 6.93582C18.4843 6.94033 19.3649 6.93582 20.2478 6.93582C20.3856 6.93582 20.5165 6.95614 20.6023 7.06904C21.1375 7.76227 21.7336 8.41937 21.9888 9.40163C20.4601 9.40163 19.0014 9.40163 17.5404 9.40163L17.5427 9.39937Z" fill="white"/>
</g>
<defs>
<clipPath id="clip0_1_626">
<rect width="22.9555" height="17.01" fill="white" transform="translate(0.0854492 0.929443)"/>
</clipPath>
</defs>
</svg>
