<svg width="23" height="23" viewBox="0 0 23 23" fill="none" xmlns="http://www.w3.org/2000/svg">
<path fill-rule="evenodd" clip-rule="evenodd" d="M13.2876 18.7891C12.4238 20.6432 11.5799 21 11.25 21C10.9201 21 10.0762 20.6432 9.21236 18.7891C8.51403 17.2903 8.01295 15.1961 7.89939 12.79H14.6006C14.4871 15.1961 13.986 17.2903 13.2876 18.7891ZM14.6137 11.04H7.88632C7.96779 8.4955 8.48228 6.27788 9.21236 4.71089C10.0762 2.85676 10.9201 2.5 11.25 2.5C11.5799 2.5 12.4238 2.85676 13.2876 4.71089C14.0177 6.27788 14.5322 8.4955 14.6137 11.04ZM16.3524 12.79C16.2163 15.9055 15.4748 18.6433 14.383 20.4559C17.6369 19.2848 20.0448 16.3413 20.4422 12.79H16.3524ZM20.4732 11.04H16.3645C16.268 7.78821 15.5132 4.92046 14.383 3.04405C17.7372 4.2513 20.1925 7.34186 20.4732 11.04ZM6.1355 11.04C6.23201 7.78821 6.98683 4.92046 8.11702 3.04405C4.76283 4.2513 2.30753 7.34186 2.02684 11.04H6.1355ZM2.05782 12.79C2.45517 16.3413 4.86312 19.2848 8.11702 20.456C7.02523 18.6433 6.28374 15.9055 6.14761 12.79H2.05782ZM22.25 11.75C22.25 5.67487 17.3251 0.75 11.25 0.75C5.17487 0.75 0.25 5.67487 0.25 11.75C0.25 17.8251 5.17487 22.75 11.25 22.75C17.3251 22.75 22.25 17.8251 22.25 11.75Z" fill="white"/>
</svg>
