<svg width="19" height="14" viewBox="0 0 19 14" fill="none" xmlns="http://www.w3.org/2000/svg">
<path fill-rule="evenodd" clip-rule="evenodd" d="M15.8746 2.50664H17.2558C17.7238 2.50664 18.1028 2.88565 18.1028 3.35367C18.1028 3.8217 17.7238 4.20071 17.2558 4.20071H15.8746C15.4905 5.64801 14.1806 6.65657 12.6824 6.65657C11.1842 6.65657 9.87425 5.64801 9.49016 4.20071H0.976854C0.508831 4.20071 0.129822 3.8217 0.129822 3.35367C0.129822 2.88565 0.508831 2.50664 0.976854 2.50664H9.49016C9.87425 1.05806 11.1842 0.0507812 12.6824 0.0507812C14.1806 0.0507812 15.4905 1.05806 15.8746 2.50664ZM11.1956 3.96922C11.4449 4.5708 12.0312 4.9625 12.6824 4.9625C13.5701 4.96123 14.2899 4.2414 14.2912 3.35367C14.2912 2.70251 13.8994 2.1162 13.2979 1.86694C12.6964 1.61767 12.0045 1.75627 11.5441 2.21541C11.085 2.67578 10.9464 3.36764 11.1956 3.96922Z" fill="black"/>
<path fill-rule="evenodd" clip-rule="evenodd" d="M8.72722 9.4773H17.2558H17.2559C17.7239 9.4773 18.1029 9.85758 18.1029 10.3256C18.1029 10.7936 17.7239 11.1726 17.2559 11.1726H8.76538C8.40799 12.6556 7.08151 13.701 5.55534 13.701C4.03045 13.701 2.7027 12.6556 2.34531 11.1726H0.976854C0.508831 11.1726 0.129822 10.7936 0.129822 10.3256C0.129822 9.85758 0.508831 9.4773 0.976854 9.4773H2.38346C2.79298 8.06561 4.08515 7.09521 5.55534 7.09521C7.02554 7.09521 8.31771 8.06561 8.72722 9.4773ZM4.06835 11.0136C4.31761 11.6152 4.90392 12.0069 5.55508 12.0069C6.44281 12.0069 7.16264 11.2871 7.16391 10.3981C7.16391 9.74818 6.77093 9.16188 6.17063 8.91261C5.56908 8.66334 4.87722 8.80068 4.41682 9.26108C3.95643 9.72145 3.81908 10.4133 4.06835 11.0136Z" fill="black"/>
</svg>
