<svg width="39" height="41" viewBox="0 0 39 41" fill="none" xmlns="http://www.w3.org/2000/svg">
<g clip-path="url(#clip0_1_1272)">
<path d="M3.56902 25.779C1.88138 25.5139 0.303019 26.673 0.037617 28.3686C-0.226223 30.0642 0.925932 31.6531 2.61201 31.9182C4.29966 32.1833 5.88114 31.0242 6.14498 29.3286C6.40882 27.633 5.2551 26.044 3.56746 25.779H3.56902Z" fill="#00A8E9"/>
<path d="M33.3929 32.3527C32.7372 32.2491 32.1221 32.7009 32.0206 33.3597C31.9176 34.0184 32.3656 34.6365 33.0213 34.74C33.677 34.8435 34.2921 34.3918 34.3952 33.733C34.4982 33.0742 34.0486 32.4562 33.3929 32.3527Z" fill="#00A8E9"/>
<path d="M28.5966 35.5996C27.7629 35.4679 26.9823 36.042 26.8528 36.8796C26.7216 37.7172 27.2915 38.5014 28.1251 38.6332C28.9588 38.7634 29.7394 38.1909 29.8705 37.3533C30.0017 36.5157 29.4303 35.7314 28.5966 35.5996Z" fill="#00A8E9"/>
<path d="M22.653 37.0911C21.6132 36.928 20.6406 37.6416 20.4782 38.6863C20.3159 39.7309 21.0246 40.7097 22.0644 40.8728C23.1041 41.036 24.0783 40.3223 24.2407 39.2776C24.4031 38.233 23.6927 37.2542 22.653 37.0911Z" fill="#00A8E9"/>
<path d="M15.9118 36.2505C14.6145 36.0465 13.3999 36.939 13.1969 38.2425C12.994 39.546 13.8792 40.7678 15.1781 40.9718C16.4754 41.1757 17.6916 40.2847 17.8945 38.9797C18.0975 37.6763 17.2107 36.4544 15.9118 36.2505Z" fill="#00A8E9"/>
<path d="M9.12578 32.7448C7.67544 32.5173 6.3172 33.5133 6.09083 34.9705C5.86446 36.4277 6.85425 37.7939 8.3046 38.0213C9.75494 38.2488 11.1147 37.2527 11.3411 35.7956C11.5675 34.3384 10.5761 32.9722 9.12578 32.7448Z" fill="#00A8E9"/>
<path d="M36.9353 27.3348C36.3796 27.247 35.8597 27.6297 35.7723 28.1865C35.6848 28.7449 36.0658 29.2688 36.62 29.3551C37.1758 29.4429 37.6972 29.0602 37.7846 28.5018C37.8721 27.9434 37.4911 27.4211 36.9353 27.3332V27.3348Z" fill="#00A8E9"/>
<path d="M35.4319 14.3835C37.1195 14.6486 38.6979 13.4895 38.9633 11.7939C39.2271 10.0983 38.075 8.50938 36.3889 8.2443C34.7013 7.97921 33.1198 9.13836 32.8559 10.834C32.5921 12.5295 33.7458 14.1185 35.4335 14.3835H35.4319Z" fill="#00A8E9"/>
<path d="M6.71816 8.56419C7.37385 8.66772 7.98896 8.21598 8.09044 7.55719C8.19348 6.89841 7.74542 6.2804 7.08972 6.17688C6.43402 6.07336 5.81891 6.5251 5.71587 7.18388C5.61284 7.84267 6.06246 8.46067 6.71816 8.56419Z" fill="#00A8E9"/>
<path d="M11.2751 5.58716C12.1088 5.71892 12.8894 5.14483 13.0189 4.30723C13.1501 3.46964 12.5802 2.68537 11.7466 2.55361C10.9129 2.42342 10.1323 2.99594 10.0012 3.83354C9.87002 4.67114 10.4414 5.4554 11.2751 5.58716Z" fill="#00A8E9"/>
<path d="M16.814 4.04691C17.8537 4.21004 18.8263 3.49635 18.9887 2.45171C19.1511 1.40706 18.4423 0.428293 17.4025 0.265165C16.3628 0.102037 15.3886 0.815722 15.2262 1.86037C15.0639 2.90501 15.7742 3.88378 16.814 4.04691Z" fill="#00A8E9"/>
<path d="M23.2089 4.75109C24.5062 4.955 25.7208 4.0625 25.9238 2.75905C26.1268 1.45559 25.2416 0.2337 23.9427 0.0297906C22.6453 -0.174119 21.4291 0.71681 21.2262 2.02183C21.0232 3.32529 21.91 4.54718 23.2089 4.75109Z" fill="#00A8E9"/>
<path d="M29.8452 7.88508C31.2955 8.11252 32.6538 7.1165 32.8801 5.65933C33.1065 4.20216 32.1167 2.83596 30.6664 2.60852C29.216 2.38108 27.8562 3.37711 27.6299 4.83428C27.4035 6.29145 28.3948 7.65764 29.8452 7.88508Z" fill="#00A8E9"/>
<path d="M3.43013 12.829C3.98592 12.9168 4.50579 12.5341 4.59322 11.9773C4.68064 11.4189 4.29972 10.895 3.74549 10.8087C3.18971 10.7209 2.66828 11.1036 2.58085 11.662C2.49342 12.2204 2.87435 12.7427 3.43013 12.8305V12.829Z" fill="#00A8E9"/>
<path d="M17.0267 10.5374C16.8051 10.5374 16.6084 10.6173 16.4444 10.7726C16.2774 10.9311 16.19 11.1397 16.19 11.3781V21.7022C16.19 22.2371 16.0526 22.7453 15.7794 23.2158C15.5062 23.6864 15.133 24.0644 14.6709 24.3389C14.2104 24.6118 13.7014 24.7499 13.1566 24.7499C12.6117 24.7499 12.1028 24.6118 11.6422 24.3389C11.1785 24.0644 10.8023 23.688 10.5228 23.2221C10.245 22.7594 10.1044 22.2481 10.1044 21.7022C10.1044 21.4669 10.0217 21.2599 9.86403 21.1015C9.70635 20.9446 9.50027 20.8615 9.26609 20.8615C9.03191 20.8615 8.82584 20.9446 8.66816 21.103C8.51204 21.2614 8.42773 21.4685 8.42773 21.7038C8.42773 22.5508 8.64162 23.3445 9.06314 24.0613C9.4831 24.7765 10.0607 25.3569 10.7789 25.7851C11.5001 26.2149 12.2995 26.4345 13.155 26.4345C14.0105 26.4345 14.7896 26.2196 15.5108 25.7961C16.2305 25.3741 16.8082 24.7922 17.2281 24.0707C17.6497 23.3476 17.8635 22.5508 17.8635 21.7038V11.3797C17.8635 11.1444 17.7808 10.9373 17.6231 10.7789C17.4654 10.6221 17.2594 10.5389 17.0252 10.5389H17.0267V10.5374Z" fill="white"/>
<path d="M27.8496 22.7596C27.0659 21.9926 25.8217 21.4624 24.1527 21.1832C22.9647 20.984 22.081 20.6499 21.5268 20.1887C20.9913 19.7433 20.7306 19.2115 20.7306 18.5606C20.7306 17.7669 20.9945 17.1677 21.5346 16.7301C22.0842 16.2846 22.8741 16.0588 23.8795 16.0588C25.2456 16.0588 26.2588 16.5748 26.9754 17.6352C27.1518 17.9018 27.4125 18.0414 27.731 18.0414C27.8762 18.0414 27.9901 18.0194 28.0776 17.9755C28.2196 17.9049 28.3336 17.8077 28.4163 17.6869C28.5038 17.5583 28.549 17.414 28.549 17.2587C28.549 17.1034 28.5116 16.9497 28.4351 16.8164C28.0401 16.145 27.4219 15.5647 26.6007 15.091C25.7779 14.6173 24.8615 14.3757 23.8795 14.3757C22.8976 14.3757 22.1029 14.5436 21.3832 14.8761C20.651 15.2133 20.0749 15.6949 19.6706 16.3097C19.2631 16.9277 19.057 17.6461 19.057 18.4461C19.057 19.5676 19.4988 20.5322 20.3716 21.3118C21.2255 22.0757 22.4073 22.5713 23.8842 22.7847C25.0504 22.9447 25.9387 23.2991 26.5226 23.8371C27.0987 24.3673 27.3782 25.0214 27.3782 25.8339C27.3782 26.7876 27.094 27.4997 26.5086 28.011C25.9216 28.5239 25.0957 28.7843 24.0544 28.7843C23.1317 28.7843 22.3355 28.6133 21.6845 28.2777C21.0444 27.9467 20.5573 27.4762 20.242 26.8895C20.0827 26.5507 19.808 26.3719 19.4489 26.3719C19.2022 26.3719 18.9961 26.4472 18.8369 26.5978C18.6761 26.7499 18.5918 26.9491 18.5918 27.175C18.5918 27.2926 18.6199 27.4103 18.6777 27.5248C19.1382 28.4361 19.8439 29.1623 20.7743 29.6847C21.6986 30.2038 22.8023 30.4658 24.0544 30.4658C25.0317 30.4658 25.906 30.2807 26.6538 29.9152C27.4109 29.5451 28.0073 29.0008 28.4257 28.2996C28.841 27.6001 29.0517 26.7719 29.0517 25.8339C29.0517 24.5759 28.6474 23.5423 27.8512 22.7611H27.8496V22.7596Z" fill="white"/>
</g>
<defs>
<clipPath id="clip0_1_1272">
<rect width="39" height="41" fill="white"/>
</clipPath>
</defs>
</svg>
