<svg width="145" height="30" viewBox="0 0 145 30" fill="none" xmlns="http://www.w3.org/2000/svg">
<g clip-path="url(#clip0_201_1635)">
<path fill-rule="evenodd" clip-rule="evenodd" d="M11.5807 0.248597C11.7759 0.0833902 12.0043 0 12.264 0V0.0015734C12.5429 0.0015734 12.7782 0.086537 12.9648 0.253317C13.1495 0.421671 13.2437 0.63408 13.2437 0.885824V13.4321C13.2437 14.4359 12.9613 15.38 12.4052 16.2375C11.8491 17.095 11.0856 17.7841 10.1356 18.2845C9.18387 18.7864 8.15715 19.0413 7.02759 19.0413C5.89803 19.0413 4.84342 18.7817 3.89166 18.2719C2.94339 17.7621 2.17989 17.0745 1.62557 16.2249C1.0695 15.3753 0.787109 14.4344 0.787109 13.4305C0.787109 13.1772 0.88124 12.9648 1.06601 12.798C1.25079 12.6312 1.48786 12.5463 1.76676 12.5463C2.04566 12.5463 2.28099 12.6312 2.46751 12.798C2.65228 12.9664 2.74641 13.1788 2.74641 13.4305C2.74641 14.1197 2.94513 14.7648 3.33385 15.3485C3.72606 15.9354 4.25424 16.4074 4.90269 16.7536C5.5494 17.0981 6.26583 17.2728 7.02933 17.2728C7.79284 17.2728 8.50927 17.0981 9.15598 16.7536C9.80269 16.4074 10.3256 15.9322 10.7091 15.3391C11.0909 14.7459 11.2844 14.1039 11.2844 13.4305V0.88425C11.2844 0.630933 11.3837 0.416951 11.5807 0.248597ZM81.0331 13.7011C79.3997 13.4557 78.1795 13.0387 77.4073 12.4629C76.6438 11.8933 76.2743 11.212 76.2743 10.3781C76.2743 9.36955 76.6491 8.60645 77.4195 8.04475C78.1917 7.48304 79.2917 7.19826 80.6879 7.19826C82.5653 7.19826 84.0174 7.86381 85.0022 9.17602C85.2114 9.45923 85.52 9.60871 85.8965 9.60871C86.0673 9.60871 86.198 9.58668 86.2974 9.54262C86.4665 9.46553 86.6007 9.36326 86.6966 9.23738C86.7977 9.10522 86.8482 8.95732 86.8482 8.79368C86.8482 8.63005 86.8047 8.46642 86.7158 8.32638C86.1946 7.53182 85.3788 6.84267 84.2893 6.27939C83.1981 5.71454 81.9866 5.42976 80.6844 5.42976C79.3823 5.42976 78.326 5.62958 77.3707 6.0245C76.4068 6.42257 75.6485 6.99214 75.1168 7.71748C74.5834 8.44439 74.3115 9.29088 74.3115 10.2365C74.3115 11.5597 74.892 12.6957 76.039 13.6162C77.1703 14.5256 78.7408 15.1156 80.7089 15.3721C82.3178 15.5703 83.5467 16.0124 84.359 16.6859C85.1591 17.3483 85.5653 18.1995 85.5653 19.2143C85.5653 20.4007 85.1521 21.3258 84.3363 21.9646C83.5136 22.6097 82.3631 22.9385 80.9163 22.9385C79.6455 22.9385 78.5439 22.7261 77.6409 22.3076C76.7467 21.8938 76.0668 21.3022 75.6206 20.558C75.4306 20.1993 75.1081 20.0089 74.6863 20.0089C74.3917 20.0089 74.1494 20.0891 73.9629 20.2449C73.7746 20.4054 73.6787 20.6068 73.6787 20.8443C73.6787 20.9655 73.7118 21.0882 73.7781 21.2078C74.3864 22.2903 75.3208 23.1541 76.5532 23.774C77.7804 24.3924 79.2481 24.707 80.9146 24.707C82.2115 24.707 83.3724 24.4868 84.3625 24.0509C85.3613 23.612 86.1457 22.9684 86.6948 22.1393C87.2422 21.3116 87.5211 20.3283 87.5211 19.2143C87.5211 17.7227 86.9912 16.5002 85.9435 15.5798C84.9064 14.6688 83.2521 14.0378 81.0244 13.7011H81.0331ZM101.487 11.9389C100.345 11.352 99.0538 11.0531 97.6471 11.0531C96.2404 11.0531 95.008 11.3426 93.8749 11.9137C92.7401 12.4865 91.8319 13.2905 91.1713 14.3053C90.5106 15.3201 90.1672 16.4624 90.1498 17.7023V29.1141C90.1498 29.3848 90.2457 29.6019 90.4339 29.7624C90.6187 29.9197 90.8523 30 91.1294 30C91.4258 30 91.6663 29.9197 91.8424 29.7592C92.0184 29.5987 92.1091 29.3832 92.1091 29.1157V22.3045C92.6599 22.9464 93.3572 23.4735 94.1922 23.8716C95.2189 24.364 96.3816 24.6126 97.6471 24.6126C99.0538 24.6126 100.345 24.3153 101.487 23.7268C102.629 23.1384 103.539 22.3186 104.191 21.2865C104.841 20.2575 105.171 19.0994 105.171 17.8439C105.171 16.5883 104.841 15.4083 104.191 14.3792C103.539 13.3487 102.629 12.5274 101.487 11.9389ZM103.211 17.8447C103.211 18.801 102.964 19.6787 102.477 20.451C101.991 21.2235 101.318 21.8372 100.481 22.2761C99.643 22.7151 98.6895 22.937 97.6471 22.937C96.6047 22.937 95.6512 22.7151 94.8127 22.2761C93.9743 21.8372 93.3084 21.2235 92.8308 20.4526C92.3514 19.6785 92.1091 18.8021 92.1091 17.8439C92.1091 16.8857 92.3514 16.0093 92.8308 15.2368C93.3084 14.4642 93.976 13.8459 94.8145 13.4006C95.6529 12.9537 96.6064 12.7288 97.6471 12.7288C98.6877 12.7288 99.6412 12.9553 100.48 13.4006C101.318 13.8474 101.991 14.4658 102.477 15.2383C102.964 16.0107 103.211 16.8868 103.211 17.8447ZM114.399 11.0548C115.788 11.0548 117.071 11.3521 118.213 11.939V11.9406C119.356 12.529 120.264 13.3503 120.916 14.3809C121.568 15.4099 121.898 16.59 121.898 17.8455C121.898 19.1011 121.567 20.2591 120.916 21.2881C120.264 22.3203 119.355 23.14 118.213 23.7285C117.071 24.3169 115.807 24.6143 114.399 24.6143C112.99 24.6143 111.699 24.3169 110.559 23.7285C109.415 23.14 108.507 22.3187 107.855 21.2881C107.203 20.2576 106.874 19.1137 106.874 17.8455C106.874 16.5774 107.205 15.4115 107.855 14.3809C108.507 13.3503 109.415 12.529 110.559 11.9406C111.7 11.3521 113.009 11.0548 114.399 11.0548ZM119.215 20.4527C119.694 19.6786 119.937 18.8006 119.937 17.844V17.8424C119.937 16.8858 119.693 16.0078 119.215 15.2353C118.737 14.4643 118.07 13.846 117.231 13.3991C116.393 12.9538 115.439 12.7273 114.399 12.7273C113.358 12.7273 112.405 12.9523 111.566 13.3991C110.728 13.846 110.055 14.4643 109.569 15.2369C109.082 16.0094 108.835 16.8873 108.835 17.844C108.835 18.8006 109.082 19.6786 109.569 20.4511C110.055 21.2236 110.726 21.8373 111.564 22.2762C112.403 22.7152 113.356 22.9371 114.399 22.9371C115.441 22.9371 116.395 22.7152 117.233 22.2762C118.07 21.8388 118.737 21.2252 119.215 20.4527ZM130.655 11.0531C129.7 11.0531 128.804 11.2671 127.994 11.6903C127.359 12.0207 126.808 12.4566 126.348 12.9884V12.0789C126.348 11.8115 126.259 11.5943 126.081 11.4354C125.904 11.2765 125.665 11.1963 125.368 11.1963C125.091 11.1963 124.858 11.2765 124.673 11.4323C124.485 11.5928 124.389 11.8099 124.389 12.0805V23.5868C124.389 23.8401 124.483 24.0525 124.668 24.2177C124.852 24.3861 125.088 24.471 125.368 24.471C125.668 24.471 125.909 24.3845 126.085 24.2146C126.259 24.0478 126.348 23.837 126.348 23.5868V16.4042C126.348 15.7151 126.533 15.0857 126.897 14.5334C127.261 13.9812 127.774 13.5422 128.419 13.2275C129.067 12.9128 129.82 12.7524 130.655 12.7524C130.817 12.7524 131.025 12.7681 131.269 12.798C131.87 12.8751 132.228 12.8672 132.48 12.7099C132.632 12.6155 132.742 12.4597 132.803 12.2536C132.827 12.1875 132.838 12.1073 132.838 12.0097C132.838 11.3756 132.104 11.0547 130.654 11.0547H130.655V11.0531ZM28.3937 18.5505C28.5784 18.7173 28.8138 18.8038 29.0944 18.8038C29.3942 18.8038 29.6348 18.7173 29.8109 18.5474C29.9852 18.3806 30.0741 18.1697 30.0741 17.9196V6.4133C30.0741 6.14582 29.9852 5.9287 29.8074 5.76978C29.6296 5.6093 29.3908 5.52905 29.0944 5.52905C28.8173 5.52905 28.5837 5.6093 28.3989 5.76506C28.2106 5.92555 28.1148 6.14268 28.1148 6.4133V13.6431C28.1148 14.296 27.9056 14.9034 27.4942 15.4462C27.0793 15.9922 26.5023 16.4264 25.7789 16.7332C25.0503 17.0432 24.2275 17.2005 23.335 17.2005C21.8917 17.2005 20.7081 16.8198 19.8156 16.0661C18.9266 15.3172 18.4769 14.2079 18.4769 12.7683V6.4133C18.4769 6.16156 18.3827 5.94915 18.198 5.7808C18.0115 5.61402 17.7761 5.52905 17.4972 5.52905C17.2183 5.52905 16.983 5.61402 16.7965 5.7808C16.6117 5.94758 16.5176 6.16156 16.5176 6.4133V12.7683C16.5176 14.0537 16.8122 15.1756 17.3926 16.1039C17.9766 17.0353 18.7959 17.7544 19.8278 18.2405C20.8545 18.7236 22.0347 18.969 23.3333 18.969C24.3705 18.969 25.3414 18.7771 26.2182 18.3963C26.9364 18.0864 27.5709 17.6694 28.113 17.1565V17.9196C28.113 18.1729 28.2072 18.3853 28.3919 18.5521H28.3937V18.5505ZM64.7434 5.38581C66.1501 5.38581 67.4417 5.68476 68.5835 6.27164V6.26849C69.7253 6.85694 70.6352 7.67825 71.2871 8.70883C71.9373 9.73941 72.2668 10.921 72.2668 12.175C72.2668 13.429 71.9373 14.587 71.2871 15.6176C70.6352 16.6498 69.7253 17.4695 68.5835 18.058C67.4417 18.6464 66.1501 18.9438 64.7434 18.9438C63.4761 18.9438 62.3151 18.6952 61.2884 18.2027C60.4535 17.8031 59.7545 17.2776 59.2054 16.6356V23.4469C59.2054 23.7143 59.1147 23.9299 58.9387 24.0904C58.7626 24.2509 58.522 24.3311 58.2257 24.3311C57.9485 24.3311 57.715 24.2524 57.5302 24.0951C57.3419 23.9346 57.2461 23.7175 57.2461 23.4469V12.035C57.2635 10.7952 57.6069 9.65287 58.2675 8.63803C58.9282 7.62319 59.8364 6.81918 60.9712 6.24646C62.1042 5.67532 63.3366 5.38581 64.7434 5.38581ZM69.5736 14.7837C70.0597 14.0116 70.3072 13.1342 70.3075 12.1782C70.3072 11.2222 70.0597 10.3447 69.5736 9.57263C69.0873 8.80009 68.4144 8.18174 67.576 7.7349C66.7375 7.28962 65.784 7.06306 64.7434 7.06306C63.7027 7.06306 62.7492 7.28805 61.9107 7.7349C61.0723 8.18174 60.4046 8.79852 59.927 9.57105C59.4477 10.3436 59.2054 11.2215 59.2054 12.1782C59.2054 13.1348 59.4477 14.0128 59.927 14.7853C60.4046 15.5563 61.0705 16.1699 61.909 16.6089C62.7474 17.0478 63.7009 17.2697 64.7434 17.2697C65.7858 17.2697 66.7393 17.0478 67.5777 16.6089C68.4144 16.1699 69.0873 15.5563 69.5736 14.7837ZM51.1554 8.22575C51.837 8.9621 52.1839 9.92502 52.1839 11.0893V17.9179C52.1839 18.1712 52.278 18.3836 52.4628 18.5504C52.6476 18.7172 52.8829 18.8021 53.1636 18.8021C53.4616 18.8021 53.7039 18.7156 53.8817 18.5457C54.056 18.3789 54.145 18.1665 54.145 17.9179V11.0893C54.145 9.9974 53.9096 9.00616 53.4442 8.14236C52.977 7.27384 52.3094 6.58627 51.464 6.09852C50.6151 5.60919 49.6389 5.36216 48.5581 5.36216C47.4774 5.36216 46.496 5.5966 45.6314 6.06075C44.8627 6.47298 44.2369 7.02839 43.7662 7.71912L43.7017 7.61685L43.639 7.71754C43.1683 7.02839 42.5425 6.47298 41.7738 6.06075C40.9092 5.59817 39.9243 5.36216 38.8471 5.36216C37.7698 5.36216 36.7901 5.60919 35.9412 6.09852C35.094 6.58627 34.4282 7.27384 33.9593 8.14236C33.4938 9.00616 33.2585 9.9974 33.2585 11.0893V17.9179C33.2585 18.1681 33.3474 18.3789 33.5217 18.5457C33.6995 18.7156 33.9401 18.8021 34.2399 18.8021C34.5188 18.8021 34.7559 18.7172 34.9407 18.5504C35.1254 18.3836 35.2196 18.1712 35.2196 17.9179V11.0893C35.2196 9.92502 35.5647 8.96053 36.248 8.22575C36.9313 7.4894 37.782 7.13067 38.8471 7.13067C40.008 7.13067 40.9545 7.47839 41.6622 8.16124C42.3735 8.84724 42.7169 9.77555 42.6837 10.9241V17.9179C42.6837 18.1681 42.7726 18.3789 42.9469 18.5472C43.1247 18.7172 43.3653 18.8021 43.6634 18.8021C43.6791 18.8021 43.6948 18.8021 43.6965 18.799L43.7418 18.8021C44.0399 18.8021 44.2805 18.7156 44.46 18.5457C44.6343 18.3789 44.7215 18.1681 44.7215 17.9179V10.9194C44.6884 9.77555 45.0318 8.84724 45.743 8.16124C46.4507 7.47681 47.399 7.13067 48.5581 7.13067C49.6232 7.13067 50.4739 7.4894 51.1572 8.22575H51.1554ZM140.889 22.6774H141.465H141.466C141.763 22.6774 142.008 22.7624 142.193 22.9292C142.378 23.0975 142.472 23.3178 142.472 23.5853C142.472 23.8386 142.378 24.051 142.191 24.2178C142.008 24.3846 141.764 24.4695 141.466 24.4695H140.865C139.873 24.4695 138.977 24.2634 138.201 23.8559C137.424 23.4484 136.809 22.882 136.375 22.1708C135.942 21.4628 135.723 20.6509 135.723 19.7588V7.99288C135.723 7.72383 135.817 7.50355 136.002 7.33677C136.186 7.16999 136.423 7.08503 136.702 7.08503C136.999 7.08503 137.243 7.16999 137.429 7.33677C137.614 7.50513 137.708 7.7254 137.708 7.99288V11.6683H140.97C141.233 11.6683 141.451 11.7454 141.618 11.8965C141.785 12.0475 141.871 12.2458 141.871 12.4818C141.871 12.7178 141.785 12.9145 141.618 13.0671C141.449 13.2181 141.231 13.2952 140.97 13.2952H137.708V19.7588C137.708 20.6194 138.006 21.329 138.594 21.8671C139.19 22.4131 139.939 22.6774 140.889 22.6774ZM143.461 6.73891C142.749 6.73891 142.131 7.2188 142.131 7.95515C142.131 8.65059 142.687 9.17296 143.461 9.17296C144.172 9.17296 144.787 8.68363 144.787 7.95515C144.787 7.22666 144.172 6.73891 143.461 6.73891ZM143.461 8.96527C142.828 8.96527 142.427 8.50898 142.427 7.95515C142.427 7.3604 142.873 6.94345 143.461 6.94345C144.048 6.94345 144.494 7.3604 144.494 7.95515C144.494 8.54989 144.034 8.96527 143.461 8.96527ZM143.522 7.30371C143.881 7.30371 144.071 7.41542 144.071 7.68762H144.069C144.069 7.93464 143.896 8.0322 143.673 8.05737L144.09 8.65211H143.813L143.422 8.0731H143.194V8.65211H142.946V7.30371H143.522ZM143.194 7.48623V7.88587H143.473C143.658 7.88587 143.818 7.87013 143.818 7.67346C143.818 7.5114 143.642 7.48623 143.494 7.48623H143.194Z" fill="white"/>
</g>
<defs>
<clipPath id="clip0_201_1635">
<rect width="144" height="30" fill="white" transform="translate(0.787109)"/>
</clipPath>
</defs>
</svg>
